# xmcd
#
# Track frame offsets:
#	150
#	13133
#	24998
#	39241
#	50371
#	63586
#	76869
#	89522
#	100150
#	111423
#
# Disc length: 1669 seconds
#
# Revision: 1
# Processed by: cddbd v1.5.2PL0 Copyright (c) Steve Scherf et al.
# Submitted via: audiograbber 1.83.01
#
DISCID=7606830a
DTITLE=Moe Bandy  and Joe Stampley - The Best of Moe and Joe
DYEAR=1977
DGENRE=Country
TTITLE0=Bandy The Rodeo Clown
TTITLE1=It Was Always So Easy (To Find An Unhappy Woman)
TTITLE2=Hank Williams, You Wrote My Life
TTITLE3=Cowboys And Playboys
TTITLE4=Somebody That Good
TTITLE5=I Just Started Hatin' Cheatin - Songs
TTITLE6=Honky Tonk Amnesia
TTITLE7=The Biggest Airport In The World
TTITLE8=Don't Anyone Make Love At Home Anymore
TTITLE9=One Thing Leads To Another
EXTD=
EXTT0=
EXTT1=
EXTT2=
EXTT3=
EXTT4=
EXTT5=
EXTT6=
EXTT7=
EXTT8=
EXTT9=
PLAYORDER=
